{
    "asset" : {
        "generator" : "Khronos glTF Blender I/O v1.6.16",
        "version" : "2.0"
    },
    "scene" : 0,
    "scenes" : [
        {
            "name" : "Scene",
            "nodes" : [
                0,
                9
            ]
        }
    ],
    "nodes" : [
        {
            "mesh" : 0,
            "name" : "island1",
            "rotation" : [
                0.7299166917800903,
                0,
                -0.6835361123085022,
                -2.0593137151081464e-07
            ]
        },
        {
            "name" : "Head",
            "rotation" : [
                0,
                -1.1920928955078125e-07,
                0,
                1
            ],
            "translation" : [
                0,
                0.11076332628726959,
                0
            ]
        },
        {
            "name" : "LowerArm.R",
            "rotation" : [
                0.26631489396095276,
                -0.2583286166191101,
                0.011322269216179848,
                0.9285550713539124
            ],
            "scale" : [
                0.9999998807907104,
                1,
                1
            ],
            "translation" : [
                -5.927666135718823e-10,
                0.03710120916366577,
                -9.70845515091412e-10
            ]
        },
        {
            "children" : [
                2
            ],
            "name" : "UpeerArm.r",
            "rotation" : [
                -0.06177308037877083,
                -0.011330942623317242,
                0.3815608322620392,
                0.9222077131271362
            ],
            "scale" : [
                1,
                1.0000001192092896,
                1
            ],
            "translation" : [
                -6.068296531935857e-09,
                0.04704466089606285,
                3.535457204772996e-10
            ]
        },
        {
            "children" : [
                3
            ],
            "name" : "Shoulder.R",
            "rotation" : [
                0.01137880515307188,
                0.013844016939401627,
                0.7724149823188782,
                0.6348653435707092
            ],
            "scale" : [
                0.9999998807907104,
                0.9999998807907104,
                0.9999999403953552
            ],
            "translation" : [
                3.2832214724720643e-09,
                0.110763318836689,
                3.404435622300639e-10
            ]
        },
        {
            "name" : "LowerArm.L",
            "rotation" : [
                0.236347034573555,
                0.24711818993091583,
                -0.017928611487150192,
                0.9395484328269958
            ],
            "scale" : [
                0.9999999403953552,
                0.9999998807907104,
                0.9999999403953552
            ],
            "translation" : [
                -2.3183570618812155e-08,
                0.039732031524181366,
                1.184143227916934e-09
            ]
        },
        {
            "children" : [
                5
            ],
            "name" : "UpperArm.L",
            "rotation" : [
                -0.04907074570655823,
                0.00784905906766653,
                -0.3607359528541565,
                0.931343138217926
            ],
            "scale" : [
                1,
                1,
                0.9999998807907104
            ],
            "translation" : [
                2.556791667274183e-09,
                0.04763483256101608,
                8.194041001274854e-10
            ]
        },
        {
            "children" : [
                6
            ],
            "name" : "Shoulder.L",
            "rotation" : [
                0.009875208139419556,
                -0.011928169056773186,
                -0.7699375748634338,
                0.6379314661026001
            ],
            "scale" : [
                1.0000001192092896,
                1.0000001192092896,
                1
            ],
            "translation" : [
                1.8169050708394252e-09,
                0.11076332628726959,
                4.649393092748255e-10
            ]
        },
        {
            "children" : [
                1,
                4,
                7
            ],
            "name" : "Root",
            "rotation" : [
                0.022760219871997833,
                1.1917841646891247e-07,
                2.713229640960435e-09,
                0.9997409582138062
            ],
            "translation" : [
                0,
                0.002963704988360405,
                0
            ]
        },
        {
            "children" : [
                8
            ],
            "name" : "Armature"
        }
    ],
    "meshes" : [
        {
            "name" : "Icosphere.165",
            "primitives" : [
                {
                    "attributes" : {
                        "POSITION" : 0,
                        "NORMAL" : 1,
                        "TEXCOORD_0" : 2
                    },
                    "indices" : 3
                }
            ]
        }
    ],
    "accessors" : [
        {
            "bufferView" : 0,
            "componentType" : 5126,
            "count" : 13272,
            "max" : [
                1.3960421085357666,
                1.898108720779419,
                1.1862316131591797
            ],
            "min" : [
                -0.9373325705528259,
                -0.8543501496315002,
                -1.1655548810958862
            ],
            "type" : "VEC3"
        },
        {
            "bufferView" : 1,
            "componentType" : 5126,
            "count" : 13272,
            "type" : "VEC3"
        },
        {
            "bufferView" : 2,
            "componentType" : 5126,
            "count" : 13272,
            "type" : "VEC2"
        },
        {
            "bufferView" : 3,
            "componentType" : 5123,
            "count" : 15612,
            "type" : "SCALAR"
        }
    ],
    "bufferViews" : [
        {
            "buffer" : 0,
            "byteLength" : 159264,
            "byteOffset" : 0
        },
        {
            "buffer" : 0,
            "byteLength" : 159264,
            "byteOffset" : 159264
        },
        {
            "buffer" : 0,
            "byteLength" : 106176,
            "byteOffset" : 318528
        },
        {
            "buffer" : 0,
            "byteLength" : 31224,
            "byteOffset" : 424704
        }
    ],
    "buffers" : [
        {
            "byteLength" : 455928,
            "uri" : "data:application/octet-stream;base64,"
        }
    ]
}
