{
    "asset" : {
        "generator" : "Khronos glTF Blender I/O v1.6.16",
        "version" : "2.0"
    },
    "scene" : 0,
    "scenes" : [
        {
            "name" : "Scene",
            "nodes" : [
                0
            ]
        }
    ],
    "nodes" : [
        {
            "mesh" : 0,
            "name" : "wind"
        }
    ],
    "meshes" : [
        {
            "name" : "BezierCurve.001",
            "primitives" : [
                {
                    "attributes" : {
                        "POSITION" : 0,
                        "NORMAL" : 1,
                        "TEXCOORD_0" : 2
                    },
                    "indices" : 3
                }
            ]
        }
    ],
    "accessors" : [
        {
            "bufferView" : 0,
            "componentType" : 5126,
            "count" : 465,
            "max" : [
                0.5,
                0.19617831707000732,
                0.010000014677643776
            ],
            "min" : [
                -0.5068399310112,
                -0.009749280288815498,
                -0.009999999776482582
            ],
            "type" : "VEC3"
        },
        {
            "bufferView" : 1,
            "componentType" : 5126,
            "count" : 465,
            "type" : "VEC3"
        },
        {
            "bufferView" : 2,
            "componentType" : 5126,
            "count" : 465,
            "type" : "VEC2"
        },
        {
            "bufferView" : 3,
            "componentType" : 5123,
            "count" : 2520,
            "type" : "SCALAR"
        }
    ],
    "bufferViews" : [
        {
            "buffer" : 0,
            "byteLength" : 5580,
            "byteOffset" : 0
        },
        {
            "buffer" : 0,
            "byteLength" : 5580,
            "byteOffset" : 5580
        },
        {
            "buffer" : 0,
            "byteLength" : 3720,
            "byteOffset" : 11160
        },
        {
            "buffer" : 0,
            "byteLength" : 5040,
            "byteOffset" : 14880
        }
    ],
    "buffers" : [
        {
            "byteLength" : 19920,
            "uri" : "data:application/octet-stream;base64,"
        }
    ]
}
